<svg xmlns="http://www.w3.org/2000/svg" width="1160" height="420" viewBox="0 0 1160 420">
<style>
svg{background:#fff}.title{font:700 22px Arial,"Noto Sans CJK SC",sans-serif;fill:#111827}.sub{font:400 13px Arial,"Noto Sans CJK SC",sans-serif;fill:#4b5563}.h{font:700 14px Arial,"Noto Sans CJK SC",sans-serif;fill:#111827}.t{font:400 13px Arial,"Noto Sans CJK SC",sans-serif;fill:#1f2937}.s{font:400 12px Arial,"Noto Sans CJK SC",sans-serif;fill:#4b5563}.tiny{font:400 11px Arial,"Noto Sans CJK SC",sans-serif;fill:#6b7280}.box{fill:#fff;stroke:#111827;stroke-width:1.2}.soft{fill:#f8fafc;stroke:#cbd5e1;stroke-width:1}.grid{stroke:#e5e7eb;stroke-width:1}.edge{stroke:#374151;stroke-width:1.2;fill:none}.dash{stroke:#6b7280;stroke-width:1.1;stroke-dasharray:4 4;fill:none}.accent{fill:#2563eb}.audio{fill:#d97706}.textc{fill:#2563eb}.fused{fill:#059669}.evidence{fill:#7c3aed}
</style><text class="title" x="48" y="38" text-anchor="start">图谱证据子图</text><text class="sub" x="48" y="61" text-anchor="start">从真实知识图谱裁剪的局部证据；布局采用固定网格，便于论文排版与逐项标注</text><rect class="soft" x="48" y="92" width="1064" height="260"/><circle cx="120" cy="222" r="34" fill="#111827"/><text class="h" x="120" y="227" text-anchor="middle">焦虑</text><line x1="154" y1="222" x2="140" y2="150" stroke="#9ca3af" stroke-width="1.2"/><rect x="140" y="130" width="140" height="40" fill="#fff" stroke="#2563eb" stroke-width="1.5"/><text class="t" x="210" y="155" text-anchor="middle">社交焦虑</text><line x1="154" y1="222" x2="320" y2="150" stroke="#9ca3af" stroke-width="1.2"/><rect x="320" y="130" width="140" height="40" fill="#fff" stroke="#2563eb" stroke-width="1.5"/><text class="t" x="390" y="155" text-anchor="middle">医生</text><line x1="154" y1="222" x2="500" y2="150" stroke="#9ca3af" stroke-width="1.2"/><rect x="500" y="130" width="140" height="40" fill="#fff" stroke="#d97706" stroke-width="1.5"/><text class="t" x="570" y="155" text-anchor="middle">工作压力</text><line x1="154" y1="222" x2="680" y2="150" stroke="#9ca3af" stroke-width="1.2"/><rect x="680" y="130" width="140" height="40" fill="#fff" stroke="#2563eb" stroke-width="1.5"/><text class="t" x="750" y="155" text-anchor="middle">紧张</text><line x1="154" y1="222" x2="860" y2="150" stroke="#9ca3af" stroke-width="1.2"/><rect x="860" y="130" width="140" height="40" fill="#fff" stroke="#059669" stroke-width="1.5"/><text class="t" x="930" y="155" text-anchor="middle">深呼吸</text><line x1="154" y1="222" x2="140" y2="225" stroke="#9ca3af" stroke-width="1.2"/><rect x="140" y="205" width="140" height="40" fill="#fff" stroke="#2563eb" stroke-width="1.5"/><text class="t" x="210" y="230" text-anchor="middle">失眠</text><line x1="154" y1="222" x2="320" y2="225" stroke="#9ca3af" stroke-width="1.2"/><rect x="320" y="205" width="140" height="40" fill="#fff" stroke="#d97706" stroke-width="1.5"/><text class="t" x="390" y="230" text-anchor="middle">压力</text><line x1="154" y1="222" x2="500" y2="225" stroke="#9ca3af" stroke-width="1.2"/><rect x="500" y="205" width="140" height="40" fill="#fff" stroke="#d97706" stroke-width="1.5"/><text class="t" x="570" y="230" text-anchor="middle">内在匮乏和欠缺</text><line x1="154" y1="222" x2="680" y2="225" stroke="#9ca3af" stroke-width="1.2"/><rect x="680" y="205" width="140" height="40" fill="#fff" stroke="#059669" stroke-width="1.5"/><text class="t" x="750" y="230" text-anchor="middle">设定小目标</text><line x1="154" y1="222" x2="860" y2="225" stroke="#9ca3af" stroke-width="1.2"/><rect x="860" y="205" width="140" height="40" fill="#fff" stroke="#2563eb" stroke-width="1.5"/><text class="t" x="930" y="230" text-anchor="middle">身体不适</text><text class="h" x="48" y="385" text-anchor="start">节点类型</text><rect x="124" y="372" width="12" height="12" fill="#2563eb"/><text class="s" x="144" y="383" text-anchor="start">情绪/症状</text><rect x="244" y="372" width="12" height="12" fill="#d97706"/><text class="s" x="264" y="383" text-anchor="start">诱发因素</text><rect x="364" y="372" width="12" height="12" fill="#059669"/><text class="s" x="384" y="383" text-anchor="start">疏导举措</text></svg>