<svg xmlns="http://www.w3.org/2000/svg" width="1120" height="440" viewBox="0 0 1120 440">

<defs>
  <marker id="arrow" viewBox="0 0 10 10" refX="8" refY="5" markerWidth="7" markerHeight="7" orient="auto-start-reverse">
    <path d="M 0 0 L 10 5 L 0 10 z" fill="#8aa99a"/>
  </marker>
  <filter id="shadow" x="-20%" y="-20%" width="140%" height="150%">
    <feDropShadow dx="0" dy="7" stdDeviation="8" flood-color="#8ba696" flood-opacity="0.18"/>
  </filter>
</defs>

<style>
svg { background: #fbfcfb; }
.title { font: 700 26px "Noto Sans CJK SC","Microsoft YaHei","PingFang SC",sans-serif; fill: #18352b; }
.subtitle { font: 500 14px "Noto Sans CJK SC","Microsoft YaHei","PingFang SC",sans-serif; fill: #60766a; }
.label { font: 700 15px "Noto Sans CJK SC","Microsoft YaHei","PingFang SC",sans-serif; fill: #29483a; }
.small { font: 500 12px "Noto Sans CJK SC","Microsoft YaHei","PingFang SC",sans-serif; fill: #61766a; }
.tiny { font: 500 10px "Noto Sans CJK SC","Microsoft YaHei","PingFang SC",sans-serif; fill: #718379; }
.box { fill: #ffffff; stroke: #d9e5dc; stroke-width: 1.2; rx: 12; }
.soft { fill: #eef7f1; stroke: #bad9c6; stroke-width: 1.1; rx: 12; }
.audio { fill: #fff1e7; stroke: #efbd9d; stroke-width: 1.1; rx: 12; }
.text { fill: #edf5ff; stroke: #b9d1ef; stroke-width: 1.1; rx: 12; }
.fusion { fill: #eff4f0; stroke: #7db895; stroke-width: 1.6; rx: 16; }
.line { stroke: #8aa99a; stroke-width: 1.8; fill: none; marker-end: url(#arrow); }
.dash { stroke: #c7d6cd; stroke-width: 1.2; stroke-dasharray: 5 5; fill: none; }
.barbg { fill: #e7eee9; rx: 4; }
.bar1 { fill: #76b88f; rx: 4; }
.bar2 { fill: #efaa80; rx: 4; }
.bar3 { fill: #8bb9e6; rx: 4; }
</style>

<text class="title" x="70" y="58">多模态心理陪伴系统架构</text>
<text class="subtitle" x="70" y="84">文本、语音、知识图谱与数字人播报在同一服务链路内闭环</text>
<rect class="text" filter="url(#shadow)" x="70" y="120" width="170" height="88"/><text class="label" x="88" y="150">文本输入</text><text class="small" x="88" y="176">中文咨询内容</text>
<text class="small" x="88" y="194">RoBERTa GoEmotions</text><rect class="audio" filter="url(#shadow)" x="70" y="250" width="170" height="88"/><text class="label" x="88" y="280">语音输入</text><text class="small" x="88" y="306">浏览器录音/转写</text>
<text class="small" x="88" y="324">Wav2Vec2 SER</text><rect class="fusion" filter="url(#shadow)" x="315" y="120" width="190" height="218"/><text class="label" x="333" y="150">多模态情绪层</text><text class="small" x="333" y="176">文本情绪分布</text>
<text class="small" x="333" y="194">语音情绪分布</text>
<text class="small" x="333" y="212">加权融合与归一化</text>
<text class="small" x="333" y="230">输出统一情绪画像</text><rect class="soft" filter="url(#shadow)" x="585" y="112" width="190" height="96"/><text class="label" x="603" y="142">LightRAG 知识图谱</text><text class="small" x="603" y="168">1729 节点</text>
<text class="small" x="603" y="186">2010 关系</text>
<text class="small" x="603" y="204">心理干预知识</text><rect class="soft" filter="url(#shadow)" x="585" y="248" width="190" height="96"/><text class="label" x="603" y="278">咨询生成与播报</text><text class="small" x="603" y="304">SiliconFlow LLM</text>
<text class="small" x="603" y="322">edge-tts</text>
<text class="small" x="603" y="340">EchoMimicV3/Wav2Lip</text><rect class="box" filter="url(#shadow)" x="835" y="176" width="210" height="118"/><text class="label" x="853" y="206">交互式前端</text><text class="small" x="853" y="232">情绪环图</text>
<text class="small" x="853" y="250">语音情绪条形图</text>
<text class="small" x="853" y="268">知识子图</text>
<text class="small" x="853" y="286">数字人反馈</text><path class="line" d="M240,164 C275,164 280,174 315,174"/><path class="line" d="M240,294 C275,294 280,282 315,282"/><path class="line" d="M505,176 C540,176 550,160 585,160"/><path class="line" d="M505,282 C540,282 550,296 585,296"/><path class="line" d="M775,160 C810,160 800,210 835,210"/><path class="line" d="M775,296 C810,296 800,250 835,250"/>
</svg>