<svg xmlns="http://www.w3.org/2000/svg" width="1120" height="440" viewBox="0 0 1120 440">

<defs>
  <marker id="arrow" viewBox="0 0 10 10" refX="8" refY="5" markerWidth="7" markerHeight="7" orient="auto-start-reverse">
    <path d="M 0 0 L 10 5 L 0 10 z" fill="#8aa99a"/>
  </marker>
  <filter id="shadow" x="-20%" y="-20%" width="140%" height="150%">
    <feDropShadow dx="0" dy="7" stdDeviation="8" flood-color="#8ba696" flood-opacity="0.18"/>
  </filter>
</defs>

<style>
svg { background: #fbfcfb; }
.title { font: 700 26px "Noto Sans CJK SC","Microsoft YaHei","PingFang SC",sans-serif; fill: #18352b; }
.subtitle { font: 500 14px "Noto Sans CJK SC","Microsoft YaHei","PingFang SC",sans-serif; fill: #60766a; }
.label { font: 700 15px "Noto Sans CJK SC","Microsoft YaHei","PingFang SC",sans-serif; fill: #29483a; }
.small { font: 500 12px "Noto Sans CJK SC","Microsoft YaHei","PingFang SC",sans-serif; fill: #61766a; }
.tiny { font: 500 10px "Noto Sans CJK SC","Microsoft YaHei","PingFang SC",sans-serif; fill: #718379; }
.box { fill: #ffffff; stroke: #d9e5dc; stroke-width: 1.2; rx: 12; }
.soft { fill: #eef7f1; stroke: #bad9c6; stroke-width: 1.1; rx: 12; }
.audio { fill: #fff1e7; stroke: #efbd9d; stroke-width: 1.1; rx: 12; }
.text { fill: #edf5ff; stroke: #b9d1ef; stroke-width: 1.1; rx: 12; }
.fusion { fill: #eff4f0; stroke: #7db895; stroke-width: 1.6; rx: 16; }
.line { stroke: #8aa99a; stroke-width: 1.8; fill: none; marker-end: url(#arrow); }
.dash { stroke: #c7d6cd; stroke-width: 1.2; stroke-dasharray: 5 5; fill: none; }
.barbg { fill: #e7eee9; rx: 4; }
.bar1 { fill: #76b88f; rx: 4; }
.bar2 { fill: #efaa80; rx: 4; }
.bar3 { fill: #8bb9e6; rx: 4; }
</style>

<text class="title" x="70" y="58">文本-语音情绪融合示意</text>
<text class="subtitle" x="70" y="84">语音输入时同时展示单模态分布和融合后的最终情绪画像</text>
<text class="label" x="88" y="134">悲伤</text><rect class="barbg" x="190" y="120" width="180" height="16"/><rect class="bar3" x="190" y="120" width="64.8" height="16"/><text class="small" x="382" y="133">36%</text><rect class="barbg" x="430" y="120" width="180" height="16"/><rect class="bar2" x="430" y="120" width="32.4" height="16"/><text class="small" x="622" y="133">18%</text><rect class="barbg" x="690" y="120" width="180" height="16"/><rect class="bar1" x="690" y="120" width="50.4" height="16"/><text class="small" x="882" y="133">28%</text><text class="label" x="88" y="192">紧张</text><rect class="barbg" x="190" y="178" width="180" height="16"/><rect class="bar3" x="190" y="178" width="43.2" height="16"/><text class="small" x="382" y="191">24%</text><rect class="barbg" x="430" y="178" width="180" height="16"/><rect class="bar2" x="430" y="178" width="70.2" height="16"/><text class="small" x="622" y="191">39%</text><rect class="barbg" x="690" y="178" width="180" height="16"/><rect class="bar1" x="690" y="178" width="55.800000000000004" height="16"/><text class="small" x="882" y="191">31%</text><text class="label" x="88" y="250">平静</text><rect class="barbg" x="190" y="236" width="180" height="16"/><rect class="bar3" x="190" y="236" width="32.4" height="16"/><text class="small" x="382" y="249">18%</text><rect class="barbg" x="430" y="236" width="180" height="16"/><rect class="bar2" x="430" y="236" width="39.6" height="16"/><text class="small" x="622" y="249">22%</text><rect class="barbg" x="690" y="236" width="180" height="16"/><rect class="bar1" x="690" y="236" width="36.0" height="16"/><text class="small" x="882" y="249">20%</text><text class="label" x="88" y="308">愤怒</text><rect class="barbg" x="190" y="294" width="180" height="16"/><rect class="bar3" x="190" y="294" width="21.6" height="16"/><text class="small" x="382" y="307">12%</text><rect class="barbg" x="430" y="294" width="180" height="16"/><rect class="bar2" x="430" y="294" width="25.2" height="16"/><text class="small" x="622" y="307">14%</text><rect class="barbg" x="690" y="294" width="180" height="16"/><rect class="bar1" x="690" y="294" width="23.400000000000002" height="16"/><text class="small" x="882" y="307">13%</text><text class="label" x="88" y="366">宽慰</text><rect class="barbg" x="190" y="352" width="180" height="16"/><rect class="bar3" x="190" y="352" width="18.0" height="16"/><text class="small" x="382" y="365">10%</text><rect class="barbg" x="430" y="352" width="180" height="16"/><rect class="bar2" x="430" y="352" width="12.6" height="16"/><text class="small" x="622" y="365">7%</text><rect class="barbg" x="690" y="352" width="180" height="16"/><rect class="bar1" x="690" y="352" width="14.4" height="16"/><text class="small" x="882" y="365">8%</text><text class="label" x="190" y="94">文本情绪</text><text class="label" x="430" y="94">语音情绪</text><text class="label" x="690" y="94">融合情绪</text><path class="dash" d="M630,85 L630,395"/><rect class="fusion" x="910" y="140" width="145" height="145" filter="url(#shadow)"/><text class="label" x="940" y="185">融合策略</text><text class="small" x="932" y="216">文本权重 0.55</text>
<text class="small" x="932" y="238">语音权重 0.45</text>
<text class="small" x="932" y="260">同名情绪累加</text>
<text class="small" x="932" y="282">归一化到 100%</text>
</svg>