<svg xmlns="http://www.w3.org/2000/svg" width="1160" height="470" viewBox="0 0 1160 470">
<style>
svg{background:#fff}.title{font:700 22px Arial,"Noto Sans CJK SC",sans-serif;fill:#111827}.sub{font:400 13px Arial,"Noto Sans CJK SC",sans-serif;fill:#4b5563}.h{font:700 14px Arial,"Noto Sans CJK SC",sans-serif;fill:#111827}.t{font:400 13px Arial,"Noto Sans CJK SC",sans-serif;fill:#1f2937}.s{font:400 12px Arial,"Noto Sans CJK SC",sans-serif;fill:#4b5563}.tiny{font:400 11px Arial,"Noto Sans CJK SC",sans-serif;fill:#6b7280}.box{fill:#fff;stroke:#111827;stroke-width:1.2}.soft{fill:#f8fafc;stroke:#cbd5e1;stroke-width:1}.grid{stroke:#e5e7eb;stroke-width:1}.edge{stroke:#374151;stroke-width:1.2;fill:none}.dash{stroke:#6b7280;stroke-width:1.1;stroke-dasharray:4 4;fill:none}.accent{fill:#2563eb}.audio{fill:#d97706}.textc{fill:#2563eb}.fused{fill:#059669}.evidence{fill:#7c3aed}
</style><text class="title" x="48" y="38" text-anchor="start">多模态情绪融合示例</text><text class="sub" x="48" y="61" text-anchor="start">文本与语音并列展示；右侧为送入图谱检索与回复生成的最终分布</text><text class="h" x="210" y="102" text-anchor="start">文本语义</text><line x1="210" y1="114" x2="400" y2="114" stroke="#2563eb" stroke-width="3"/><text class="h" x="500" y="102" text-anchor="start">语音韵律</text><line x1="500" y1="114" x2="690" y2="114" stroke="#d97706" stroke-width="3"/><text class="h" x="790" y="102" text-anchor="start">融合输出</text><line x1="790" y1="114" x2="980" y2="114" stroke="#059669" stroke-width="3"/><text class="h" x="72" y="162" text-anchor="start">悲伤</text><rect x="210" y="148" width="190" height="18" fill="#f3f4f6"/><rect x="210" y="148" width="117.8" height="18" fill="#2563eb"/><text class="t" x="412" y="162" text-anchor="start">62%</text><rect x="500" y="148" width="190" height="18" fill="#f3f4f6"/><rect x="500" y="148" width="15.2" height="18" fill="#d97706"/><text class="t" x="702" y="162" text-anchor="start">8%</text><rect x="790" y="148" width="190" height="18" fill="#f3f4f6"/><rect x="790" y="148" width="74.1" height="18" fill="#059669"/><text class="t" x="992" y="162" text-anchor="start">39%</text><text class="h" x="72" y="218" text-anchor="start">高兴</text><rect x="210" y="204" width="190" height="18" fill="#f3f4f6"/><rect x="210" y="204" width="13.299999999999999" height="18" fill="#2563eb"/><text class="t" x="412" y="218" text-anchor="start">7%</text><rect x="500" y="204" width="190" height="18" fill="#f3f4f6"/><rect x="500" y="204" width="104.5" height="18" fill="#d97706"/><text class="t" x="702" y="218" text-anchor="start">55%</text><rect x="790" y="204" width="190" height="18" fill="#f3f4f6"/><rect x="790" y="204" width="47.5" height="18" fill="#059669"/><text class="t" x="992" y="218" text-anchor="start">25%</text><text class="h" x="72" y="274" text-anchor="start">紧张</text><rect x="210" y="260" width="190" height="18" fill="#f3f4f6"/><rect x="210" y="260" width="39.9" height="18" fill="#2563eb"/><text class="t" x="412" y="274" text-anchor="start">21%</text><rect x="500" y="260" width="190" height="18" fill="#f3f4f6"/><rect x="500" y="260" width="24.7" height="18" fill="#d97706"/><text class="t" x="702" y="274" text-anchor="start">13%</text><rect x="790" y="260" width="190" height="18" fill="#f3f4f6"/><rect x="790" y="260" width="34.199999999999996" height="18" fill="#059669"/><text class="t" x="992" y="274" text-anchor="start">18%</text><text class="h" x="72" y="330" text-anchor="start">平静</text><rect x="210" y="316" width="190" height="18" fill="#f3f4f6"/><rect x="210" y="316" width="19.0" height="18" fill="#2563eb"/><text class="t" x="412" y="330" text-anchor="start">10%</text><rect x="500" y="316" width="190" height="18" fill="#f3f4f6"/><rect x="500" y="316" width="45.599999999999994" height="18" fill="#d97706"/><text class="t" x="702" y="330" text-anchor="start">24%</text><rect x="790" y="316" width="190" height="18" fill="#f3f4f6"/><rect x="790" y="316" width="34.199999999999996" height="18" fill="#059669"/><text class="t" x="992" y="330" text-anchor="start">18%</text><line class="dash" x1="705" y1="88" x2="705" y2="370"/><rect class="soft" x="48" y="392" width="1060" height="58"/><text class="t" x="64" y="415" text-anchor="start">解释：用户可以“用高兴语气说悲伤的话”。系统因此保留语音证据，但让融合结果同时受语义约束。</text><text class="t" x="64" y="438" text-anchor="start">融合输出才进入实时情绪感知面板、图谱检索提示和数字人回复生成。</text></svg>