<svg xmlns="http://www.w3.org/2000/svg" width="1120" height="450" viewBox="0 0 1120 450">

<defs>
  <marker id="arrow" viewBox="0 0 10 10" refX="8" refY="5" markerWidth="7" markerHeight="7" orient="auto-start-reverse">
    <path d="M 0 0 L 10 5 L 0 10 z" fill="#8aa99a"/>
  </marker>
  <filter id="shadow" x="-20%" y="-20%" width="140%" height="150%">
    <feDropShadow dx="0" dy="7" stdDeviation="8" flood-color="#8ba696" flood-opacity="0.18"/>
  </filter>
</defs>

<style>
svg { background: #fbfcfb; }
.title { font: 700 26px "Noto Sans CJK SC","Microsoft YaHei","PingFang SC",sans-serif; fill: #18352b; }
.subtitle { font: 500 14px "Noto Sans CJK SC","Microsoft YaHei","PingFang SC",sans-serif; fill: #60766a; }
.label { font: 700 15px "Noto Sans CJK SC","Microsoft YaHei","PingFang SC",sans-serif; fill: #29483a; }
.small { font: 500 12px "Noto Sans CJK SC","Microsoft YaHei","PingFang SC",sans-serif; fill: #61766a; }
.tiny { font: 500 10px "Noto Sans CJK SC","Microsoft YaHei","PingFang SC",sans-serif; fill: #718379; }
.box { fill: #ffffff; stroke: #d9e5dc; stroke-width: 1.2; rx: 12; }
.soft { fill: #eef7f1; stroke: #bad9c6; stroke-width: 1.1; rx: 12; }
.audio { fill: #fff1e7; stroke: #efbd9d; stroke-width: 1.1; rx: 12; }
.text { fill: #edf5ff; stroke: #b9d1ef; stroke-width: 1.1; rx: 12; }
.fusion { fill: #eff4f0; stroke: #7db895; stroke-width: 1.6; rx: 16; }
.line { stroke: #8aa99a; stroke-width: 1.8; fill: none; marker-end: url(#arrow); }
.dash { stroke: #c7d6cd; stroke-width: 1.2; stroke-dasharray: 5 5; fill: none; }
.barbg { fill: #e7eee9; rx: 4; }
.bar1 { fill: #76b88f; rx: 4; }
.bar2 { fill: #efaa80; rx: 4; }
.bar3 { fill: #8bb9e6; rx: 4; }
</style>

<text class="title" x="70" y="58">系统能力与资源画像</text>
<text class="subtitle" x="70" y="84">覆盖硬件适配、情绪识别、图谱检索与数字人生成能力</text>
<text class="label" x="86" y="141">GPU</text><text class="small" x="195" y="141">RTX 4090D / 24GB</text><rect class="barbg" x="500" y="128" width="360" height="18"/><rect class="bar1" x="500" y="128" width="345.6" height="18"/><text class="label" x="885" y="143">96</text><text class="label" x="86" y="199">文本情绪</text><text class="small" x="195" y="199">RoBERTa + 翻译模型</text><rect class="barbg" x="500" y="186" width="360" height="18"/><rect class="bar3" x="500" y="186" width="295.2" height="18"/><text class="label" x="885" y="201">82</text><text class="label" x="86" y="257">语音情绪</text><text class="small" x="195" y="257">Wav2Vec2 SUPERB-ER</text><rect class="barbg" x="500" y="244" width="360" height="18"/><rect class="bar2" x="500" y="244" width="280.8" height="18"/><text class="label" x="885" y="259">78</text><text class="label" x="86" y="315">知识图谱</text><text class="small" x="195" y="315">1729 节点 / 2010 关系</text><rect class="barbg" x="500" y="302" width="360" height="18"/><rect class="bar1" x="500" y="302" width="316.8" height="18"/><text class="label" x="885" y="317">88</text><text class="label" x="86" y="373">数字人</text><text class="small" x="195" y="373">EchoMimicV3 优先回退 Wav2Lip</text><rect class="barbg" x="500" y="360" width="360" height="18"/><rect class="bar2" x="500" y="360" width="266.40000000000003" height="18"/><text class="label" x="885" y="375">74</text><rect class="soft" x="70" y="368" width="980" height="42"/><text class="small" x="92" y="394">注：该图用于汇报展示，数值为系统能力画像与资源适配指标；正式论文实验可替换为真实评测结果。</text>
</svg>